<svg width="92.53" height="122.88" xmlns="http://www.w3.org/2000/svg" data-name="Layer 1">

 <title>map-pin-point</title>
 <g>
  <title>Layer 1</title>
  <path fill="#004f7b" id="svg_1" fill-rule="evenodd" d="m46.27,24.08a22.75,22.75 0 1 1 -22.75,22.75a22.75,22.75 0 0 1 22.75,-22.75zm1.36,91.62a82.87,82.87 0 0 0 16.37,-13.89a85.44,85.44 0 0 0 20.56,-39.58c2.81,-13.67 1.5,-27 -4.75,-37.34a36.74,36.74 0 0 0 -6.63,-8.06c-7.56,-6.9 -16.18,-10.19 -24.95,-10.27c-9.16,-0.07 -18.46,3.44 -26.68,9.94a38.54,38.54 0 0 0 -8.63,9.56c-5.77,9.09 -7.51,20.37 -5.61,32.18c1.94,12 7.66,24.61 16.77,36a102.46,102.46 0 0 0 23.55,21.46zm21.24,-9.46a89.32,89.32 0 0 1 -19.33,16a3.28,3.28 0 0 1 -3.71,0.13a109.25,109.25 0 0 1 -26.9,-24c-9.8,-12.31 -16,-26 -18.1,-39.1c-2.16,-13.38 -0.13,-26.27 6.53,-36.74a45.3,45.3 0 0 1 10.1,-11.18c9.39,-7.48 20.14,-11.44 30.83,-11.35c10.31,0.09 20.5,3.92 29.31,12a43.1,43.1 0 0 1 7.82,9.52c7.15,11.8 8.71,26.83 5.57,42.05a92.2,92.2 0 0 1 -22.12,42.7l0,-0.03z" class="cls-1"/>
 </g>
</svg>