<?xml version="1.0" encoding="UTF-8" standalone="no"?>
<!-- Created with Inkscape (http://www.inkscape.org/) -->

<svg
   xmlns:dc="http://purl.org/dc/elements/1.1/"
   xmlns:cc="http://creativecommons.org/ns#"
   xmlns:rdf="http://www.w3.org/1999/02/22-rdf-syntax-ns#"
   xmlns:svg="http://www.w3.org/2000/svg"
   xmlns="http://www.w3.org/2000/svg"
   xmlns:xlink="http://www.w3.org/1999/xlink"
   xmlns:sodipodi="http://sodipodi.sourceforge.net/DTD/sodipodi-0.dtd"
   xmlns:inkscape="http://www.inkscape.org/namespaces/inkscape"
   id="svg2"
   viewBox="0 0 350 300"
   version="1.1"
   inkscape:version="0.48.5 r10040"
   sodipodi:docname="desenhocs.svg"
   width="100%"
   height="100%">
  <sodipodi:namedview
     id="base"
     bordercolor="#666666"
     inkscape:pageshadow="2"
     inkscape:window-y="0"
     pagecolor="#ffffff"
     inkscape:window-height="766"
     inkscape:window-maximized="0"
     inkscape:zoom="1.977542"
     inkscape:window-x="0"
     inkscape:snap-bbox="true"
     showgrid="false"
     borderopacity="1.0"
     inkscape:current-layer="layer1"
     inkscape:cx="242.49199"
     inkscape:cy="100.69724"
     showguides="true"
     inkscape:guide-bbox="true"
     inkscape:window-width="1366"
     inkscape:pageopacity="0.0"
     inkscape:document-units="px" />
  <defs
     id="defs4">
    <inkscape:perspective
       sodipodi:type="inkscape:persp3d"
       inkscape:vp_x="0 : 150 : 1"
       inkscape:vp_y="0 : 1000 : 0"
       inkscape:vp_z="350 : 150 : 1"
       inkscape:persp3d-origin="175 : 100 : 1"
       id="perspective3477" />
    <linearGradient
       id="linearGradient16177">
      <stop
         id="stop16179"
         style="stop-color:#fffbfd"
         offset="0" />
      <stop
         id="stop16181"
         style="stop-color:#9d9d9d;stop-opacity:0"
         offset="1" />
    </linearGradient>
    <filter
       id="filter15931"
       inkscape:collect="always"
       color-interpolation-filters="sRGB">
      <feGaussianBlur
         id="feGaussianBlur15933"
         stdDeviation="0.1884936"
         inkscape:collect="always" />
    </filter>
    <radialGradient
       id="radialGradient3335"
       xlink:href="#linearGradient16177"
       gradientUnits="userSpaceOnUse"
       cy="235.34"
       cx="225.94"
       gradientTransform="matrix(-0.8734,-1.4534,0.71264,-0.43214,297.96,645.62)"
       r="13.25"
       inkscape:collect="always" />
    <radialGradient
       id="radialGradient3337"
       xlink:href="#linearGradient16177"
       gradientUnits="userSpaceOnUse"
       cy="235.34"
       cx="225.94"
       gradientTransform="matrix(-0.68483,-1.1396,0.55877,-0.33884,291.48,552.26)"
       r="13.25"
       inkscape:collect="always" />
    <linearGradient
       id="linearGradient3342"
       y2="391.74"
       gradientUnits="userSpaceOnUse"
       x2="353.99"
       gradientTransform="matrix(0.96935,0.22894,-0.22982,0.97323,-0.020269,547.06)"
       y1="407.42"
       x1="369.97"
       inkscape:collect="always">
      <stop
         id="stop16523"
         style="stop-color:#ac9393"
         offset="0" />
      <stop
         id="stop16525"
         style="stop-color:#ffc4c4;stop-opacity:0"
         offset="1" />
    </linearGradient>
    <linearGradient
       id="linearGradient3419"
       y2="238.84"
       gradientUnits="userSpaceOnUse"
       x2="237.59"
       gradientTransform="matrix(0.95265,0.22081,-0.22787,0.94732,1.0014,552.89)"
       y1="215.85"
       x1="233.35"
       inkscape:collect="always">
      <stop
         id="stop16334"
         style="stop-color:#ffffff"
         offset="0" />
      <stop
         id="stop16342"
         style="stop-color:#a02c5a;stop-opacity:.49804"
         offset=".5" />
      <stop
         id="stop16336"
         style="stop-color:#a02c5a;stop-opacity:0"
         offset="1" />
    </linearGradient>
    <linearGradient
       id="linearGradient3425"
       y2="455.67"
       gradientUnits="userSpaceOnUse"
       x2="349.85"
       gradientTransform="matrix(0.99602,0,0,1,125.7,532.41)"
       y1="270.39"
       x1="363.46"
       inkscape:collect="always">
      <stop
         id="stop16441"
         style="stop-color:#ff0000;stop-opacity:.16968"
         offset="0" />
      <stop
         id="stop16443"
         style="stop-color:#ff0000;stop-opacity:0"
         offset="1" />
    </linearGradient>
    <linearGradient
       inkscape:collect="always"
       xlink:href="#linearGradient3342"
       id="linearGradient3155"
       gradientUnits="userSpaceOnUse"
       gradientTransform="matrix(0.96935,0.22894,-0.22982,0.97323,-2.042969,546.0486)"
       x1="369.97"
       y1="407.42"
       x2="353.99"
       y2="391.74" />
    <linearGradient
       inkscape:collect="always"
       xlink:href="#linearGradient3419"
       id="linearGradient3253"
       gradientUnits="userSpaceOnUse"
       gradientTransform="matrix(0.95265,0.22081,-0.22787,0.94732,-1.0213,551.8786)"
       x1="233.35"
       y1="215.85"
       x2="237.59"
       y2="238.84" />
    <linearGradient
       inkscape:collect="always"
       xlink:href="#linearGradient3425"
       id="linearGradient3259"
       gradientUnits="userSpaceOnUse"
       gradientTransform="matrix(0.96934658,0.22894516,-0.22982,0.97323,-2.0474122,546.03939)"
       x1="363.46"
       y1="270.39"
       x2="349.85"
       y2="455.67" />
  </defs>
  <g
     id="layer1"
     inkscape:label="Camada 1"
     inkscape:groupmode="layer"
     transform="translate(0 -752.36)">
    <path
       inkscape:connector-curvature="0"
       style="fill:#a02c5a"
       sodipodi:nodetypes="ccccc"
       d="m 57.0843,759.0986 287.72,63.495 -7.3193,-2.6518 -279.43,-65.562 z"
       id="rect16344" />
    <path
       d="M 58.712097,754.96945 343.95315,822.33912 289.92017,1051.1552 4.6791172,983.78556 z"
       inkscape:connector-curvature="0"
       style="fill:#a02c5a"
       id="rect3075" />
    <g
       transform="matrix(0.96106,0.22698,-0.22982,0.97323,-2.12668,546.0286)"
       id="g14746">
      <path
         inkscape:connector-curvature="0"
         style="fill:#ffaaaa"
         d="m 108.08,190.22 h 290.85 c 2.9943,0 4.6111,6e-5 4.6111,1.7e-4 v 233.4 h -290.85 c -2.9943,0 -4.6111,-6e-5 -4.6111,-1.7e-4 v -233.4"
         id="path14748" />
      <path
         inkscape:connector-curvature="0"
         style="fill:#ffaaaa"
         d="m 108.08,190.22 h 290.84 c 2.9937,0 4.6101,3.8e-4 4.6101,0.001 v 233.4 h -290.84 c -2.9937,0 -4.6101,-3.8e-4 -4.6101,-10e-4 v -233.4"
         id="path14750" />
      <path
         inkscape:connector-curvature="0"
         style="fill:#ffaaaa"
         d="m 108.08,190.22 h 290.84 c 2.9923,0 4.608,0.001 4.608,0.003 v 233.4 h -290.84 c -2.9923,0 -4.608,-10e-4 -4.608,-0.003 v -233.4"
         id="path14752" />
      <path
         inkscape:connector-curvature="0"
         style="fill:#ffaaaa"
         d="m 108.08,190.22 h 290.84 c 2.9898,0 4.6041,0.002 4.6041,0.007 v 233.4 h -290.84 c -2.9898,0 -4.6041,-0.002 -4.6041,-0.007 v -233.4"
         id="path14754" />
      <path
         inkscape:connector-curvature="0"
         style="fill:#ffaaaa"
         d="m 108.08,190.22 h 290.83 c 2.986,0 4.5982,0.004 4.5982,0.0127 v 233.39 h -290.83 c -2.986,0 -4.5982,-0.004 -4.5982,-0.0127 V 190.22"
         id="path14756" />
      <path
         inkscape:connector-curvature="0"
         style="fill:#ffaaaa"
         d="M 108.08,190.22 H 398.9 c 2.9806,0 4.59,0.007 4.59,0.0208 v 233.38 H 112.67 c -2.9806,0 -4.59,-0.007 -4.59,-0.0208 V 190.22"
         id="path14758" />
      <path
         inkscape:connector-curvature="0"
         style="fill:#ffaaaa"
         d="m 108.08,190.22 h 290.81 c 2.9735,0 4.579,0.0111 4.579,0.0316 v 233.37 h -290.81 c -2.9735,0 -4.579,-0.0111 -4.579,-0.0316 V 190.22"
         id="path14760" />
      <path
         inkscape:connector-curvature="0"
         style="fill:#ffaaaa"
         d="m 108.08,190.22 h 290.79 c 2.9644,0 4.565,0.016 4.565,0.0453 v 233.36 h -290.79 c -2.9644,0 -4.565,-0.016 -4.565,-0.0453 V 190.22"
         id="path14762" />
      <path
         inkscape:connector-curvature="0"
         style="fill:#ffabab"
         d="m 108.08,190.22 h 290.77 c 2.9532,0 4.5477,0.022 4.5477,0.0623 v 233.34 h -290.77 c -2.9532,0 -4.5477,-0.022 -4.5477,-0.0623 V 190.22"
         id="path14764" />
      <path
         inkscape:connector-curvature="0"
         style="fill:#ffabab"
         d="m 108.08,190.22 h 290.74 c 2.9396,0 4.5268,0.0292 4.5268,0.0828 v 233.32 h -290.74 c -2.9396,0 -4.5268,-0.0292 -4.5268,-0.0828 V 190.22"
         id="path14766" />
      <path
         inkscape:connector-curvature="0"
         style="fill:#ffacac"
         d="m 108.08,190.22 h 290.71 c 2.9235,0 4.502,0.0378 4.502,0.10709 v 233.3 h -290.71 c -2.9235,0 -4.502,-0.0378 -4.502,-0.10709 v -233.3"
         id="path14768" />
      <path
         inkscape:connector-curvature="0"
         style="fill:#ffacac"
         d="m 108.08,190.22 h 290.68 c 2.9047,0 4.4731,0.0478 4.4731,0.13546 v 233.27 h -290.68 c -2.9047,0 -4.4731,-0.0478 -4.4731,-0.13546 V 190.22"
         id="path14770" />
      <path
         inkscape:connector-curvature="0"
         style="fill:#ffadad"
         d="m 108.08,190.22 h 290.64 c 2.8831,0 4.4398,0.0593 4.4398,0.16813 v 233.24 h -290.64 c -2.8831,0 -4.4398,-0.0593 -4.4398,-0.16813 V 190.22"
         id="path14772" />
      <path
         inkscape:connector-curvature="0"
         style="fill:#ffadad"
         d="m 108.08,190.22 h 290.59 c 2.8584,0 4.4018,0.0724 4.4018,0.20538 v 233.2 h -290.59 c -2.8584,0 -4.4018,-0.0725 -4.4018,-0.20538 v -233.2"
         id="path14774" />
      <path
         inkscape:connector-curvature="0"
         style="fill:#ffaeae"
         d="m 108.08,190.22 h 290.54 c 2.8306,0 4.3589,0.0873 4.3589,0.24743 v 233.16 h -290.54 c -2.8306,0 -4.3589,-0.0873 -4.3589,-0.24743 V 190.22"
         id="path14776" />
      <path
         inkscape:connector-curvature="0"
         style="fill:#ffafaf"
         d="m 108.08,190.22 h 290.48 c 2.7994,0 4.3109,0.1039 4.3109,0.29453 v 233.11 h -290.48 c -2.7994,0 -4.3109,-0.1039 -4.3109,-0.29453 V 190.22"
         id="path14778" />
      <path
         inkscape:connector-curvature="0"
         style="fill:#ffb0b0"
         d="m 108.08,190.22 h 290.41 c 2.7647,0 4.2575,0.12238 4.2575,0.34691 v 233.06 h -290.41 c -2.7647,0 -4.2575,-0.12238 -4.2575,-0.34691 V 190.22"
         id="path14780" />
      <path
         inkscape:connector-curvature="0"
         style="fill:#ffb1b1"
         d="m 108.08,190.22 h 290.34 c 2.7264,0 4.1984,0.1428 4.1984,0.4048 v 233 h -290.34 c -2.7264,0 -4.1984,-0.1428 -4.1984,-0.4048 v -233"
         id="path14782" />
      <path
         inkscape:connector-curvature="0"
         style="fill:#ffb2b2"
         d="m 108.08,190.22 h 290.26 c 2.6842,0 4.1336,0.16525 4.1336,0.46843 v 232.94 h -290.26 c -2.6842,0 -4.1336,-0.16525 -4.1336,-0.46843 V 190.22"
         id="path14784" />
      <path
         inkscape:connector-curvature="0"
         style="fill:#ffb4b4"
         d="m 108.08,190.22 h 290.18 c 2.6382,0 4.0626,0.1898 4.0626,0.53801 v 232.87 h -290.18 c -2.6382,0 -4.0626,-0.1898 -4.0626,-0.53801 V 190.22"
         id="path14786" />
      <path
         inkscape:connector-curvature="0"
         style="fill:#ffb5b5"
         d="m 108.08,190.22 h 290.08 c 2.588,0 3.9854,0.21652 3.9854,0.61376 v 232.79 h -290.08 c -2.588,0 -3.9854,-0.21652 -3.9854,-0.61376 V 190.22"
         id="path14788" />
      <path
         inkscape:connector-curvature="0"
         style="fill:#ffb7b7"
         d="m 108.08,190.22 h 289.98 c 2.5336,0 3.9016,0.2455 3.9016,0.6959 v 232.71 h -289.98 c -2.5336,0 -3.9016,-0.2455 -3.9016,-0.6959 V 190.22"
         id="path14790" />
      <path
         inkscape:connector-curvature="0"
         style="fill:#ffb8b8"
         d="m 108.08,190.22 h 289.87 c 2.4748,0 3.8111,0.2768 3.8111,0.78464 v 232.62 h -289.87 c -2.4748,0 -3.8111,-0.2768 -3.8111,-0.78464 V 190.22"
         id="path14792" />
      <path
         inkscape:connector-curvature="0"
         style="fill:#ffbaba"
         d="m 108.08,190.22 h 289.75 c 2.4116,0 3.7137,0.31051 3.7137,0.88019 v 232.52 h -289.75 c -2.4116,0 -3.7137,-0.31051 -3.7137,-0.88019 V 190.22"
         id="path14794" />
      <path
         inkscape:connector-curvature="0"
         style="fill:#ffbcbc"
         d="M 108.08,190.22 H 397.7 c 2.3436,0 3.6091,0.34669 3.6091,0.98275 v 232.42 h -289.62 c -2.3436,0 -3.6091,-0.34669 -3.6091,-0.98275 V 190.22"
         id="path14796" />
      <path
         inkscape:connector-curvature="0"
         style="fill:#ffbebe"
         d="m 108.08,190.22 h 289.48 c 2.271,0 3.4971,0.38542 3.4971,1.0925 v 232.31 h -289.48 c -2.271,0 -3.4971,-0.38542 -3.4971,-1.0925 V 190.22"
         id="path14798" />
      <path
         inkscape:connector-curvature="0"
         style="fill:#ffc0c0"
         d="m 108.08,190.22 h 289.34 c 2.1933,0 3.3776,0.42676 3.3776,1.2097 v 232.2 h -289.34 c -2.1933,0 -3.3776,-0.42676 -3.3776,-1.2097 v -232.2"
         id="path14800" />
      <path
         inkscape:connector-curvature="0"
         style="fill:#ffc3c3"
         d="m 108.08,190.22 h 289.18 c 2.1107,0 3.2503,0.4708 3.2503,1.3346 v 232.07 h -289.18 c -2.1107,0 -3.2503,-0.4708 -3.2503,-1.3346 V 190.22"
         id="path14802" />
      <path
         inkscape:connector-curvature="0"
         style="fill:#ffc5c5"
         d="M 108.08,190.22 H 397.1 c 2.0229,0 3.1151,0.51758 3.1151,1.4672 v 231.94 h -289.02 c -2.0229,0 -3.1151,-0.51758 -3.1151,-1.4672 V 190.22"
         id="path14804" />
      <path
         inkscape:connector-curvature="0"
         style="fill:#ffc8c8"
         d="m 108.08,190.22 h 288.84 c 1.9297,0 2.9717,0.5672 2.9717,1.6078 v 231.8 h -288.84 c -1.9297,0 -2.9717,-0.5672 -2.9717,-1.6078 v -231.8"
         id="path14806" />
      <path
         inkscape:connector-curvature="0"
         style="fill:#ffcbcb"
         d="m 108.08,190.22 h 288.66 c 1.8312,0 2.8199,0.6197 2.8199,1.7566 v 231.65 h -288.66 c -1.8312,0 -2.8199,-0.6197 -2.8199,-1.7566 V 190.22"
         id="path14808" />
      <path
         inkscape:connector-curvature="0"
         style="fill:#ffcdcd"
         d="m 108.08,190.22 h 288.46 c 1.7271,0 2.6596,0.67517 2.6596,1.9139 v 231.49 h -288.46 c -1.7271,0 -2.6596,-0.67517 -2.6596,-1.9139 V 190.22"
         id="path14810" />
      <path
         inkscape:connector-curvature="0"
         style="fill:#ffd1d1"
         d="m 108.08,190.22 h 288.25 c 1.6173,0 2.4905,0.73366 2.4905,2.0797 v 231.33 h -288.25 c -1.6173,0 -2.4905,-0.73366 -2.4905,-2.0797 V 190.22"
         id="path14812" />
      <path
         inkscape:connector-curvature="0"
         style="fill:#ffd4d4"
         d="m 108.08,190.22 h 288.04 c 1.5017,0 2.3125,0.79524 2.3125,2.2542 v 231.15 h -288.04 c -1.5017,0 -2.3125,-0.79524 -2.3125,-2.2542 V 190.22"
         id="path14814" />
      <path
         inkscape:connector-curvature="0"
         style="fill:#ffd7d7"
         d="m 108.08,190.22 h 287.81 c 1.3802,0 2.1254,0.85998 2.1254,2.4378 v 230.97 h -287.81 c -1.3802,0 -2.1254,-0.85998 -2.1254,-2.4378 V 190.22"
         id="path14816" />
      <path
         inkscape:connector-curvature="0"
         style="fill:#ffdbdb"
         d="m 108.08,190.22 h 287.57 c 1.2526,0 1.9289,0.92795 1.9289,2.6304 v 230.77 h -287.57 c -1.2526,0 -1.9289,-0.92795 -1.9289,-2.6304 V 190.22"
         id="path14818" />
      <path
         inkscape:connector-curvature="0"
         style="fill:#ffdfdf"
         d="M 108.08,190.22 H 395.4 c 1.1188,0 1.723,0.9992 1.723,2.8324 v 230.57 h -287.32 c -1.1188,0 -1.723,-0.9992 -1.723,-2.8324 V 190.22"
         id="path14820" />
      <path
         inkscape:connector-curvature="0"
         style="fill:#ffe3e3"
         d="m 108.08,190.22 h 287.05 c 0.97881,0 1.5073,1.0738 1.5073,3.0438 v 230.36 h -287.05 c -0.97881,0 -1.5073,-1.0738 -1.5073,-3.0438 V 190.22"
         id="path14822" />
      <path
         inkscape:connector-curvature="0"
         style="fill:#ffe7e7"
         d="m 108.08,190.22 h 286.78 c 0.83238,0 1.2818,1.1518 1.2818,3.265 v 230.14 h -286.78 c -0.83238,0 -1.2818,-1.1518 -1.2818,-3.265 V 190.22"
         id="path14824" />
      <path
         inkscape:connector-curvature="0"
         style="fill:#ffebeb"
         d="m 108.08,190.22 h 286.49 c 0.67941,0 1.0463,1.2333 1.0463,3.496 v 229.91 h -286.49 c -0.67941,0 -1.0462,-1.2333 -1.0462,-3.496 V 190.22"
         id="path14826" />
      <path
         inkscape:connector-curvature="0"
         style="fill:#fff0f0"
         d="m 108.08,190.22 h 286.19 c 0.51981,0 0.80048,1.3183 0.80048,3.737 v 229.67 h -286.19 c -0.51981,0 -0.80048,-1.3183 -0.80048,-3.737 V 190.22"
         id="path14828" />
      <path
         inkscape:connector-curvature="0"
         style="fill:#fff4f4"
         d="m 108.08,190.22 h 285.87 c 0.35345,0 0.54429,1.407 0.54429,3.9882 v 229.42 h -285.87 c -0.35345,0 -0.54429,-1.407 -0.54429,-3.9882 V 190.22"
         id="path14830" />
      <path
         inkscape:connector-curvature="0"
         style="fill:#fff9f9"
         d="m 108.08,190.22 h 285.55 c 0.18022,0 0.27752,1.4992 0.27752,4.2498 v 229.16 h -285.55 c -0.18021,0 -0.27752,-1.4992 -0.27752,-4.2498 V 190.22"
         id="path14832" />
    </g>
    <path
       d="M 57.737799,754.65713 333.16879,819.70981 279.29439,1047.8544 3.8633942,982.80171 z"
       inkscape:connector-curvature="0"
       style="fill:url(#linearGradient3259)"
       id="rect16435" />
    <path
       d="M 57.745364,754.66681 330.88236,819.1686 277.00093,1047.3132 3.8639273,982.81138 z"
       inkscape:connector-curvature="0"
       style="fill:#fff9f9"
       id="rect16437" />
    <path
       inkscape:connector-curvature="0"
       style="fill:#c8b7c4"
       sodipodi:nodetypes="ccccc"
       d="m 48.4443,806.3786 270.16,61.801 c -1.2712,5.2179 -1.3578,18.292 -3.8136,15.654 l -270.94,-66.93 z"
       id="rect14992" />
    <path
       d="m 58.1393,754.2386 276.6,65.32 -14.02,59.35 -276.59,-65.32 z"
       inkscape:connector-curvature="0"
       style="fill:#a02c5a"
       id="rect15006" />
    <path
       d="m 57.9903,754.2586 274.65,63.66 -14.04,58.38 -274.65,-63.66 z"
       inkscape:connector-curvature="0"
       style="opacity:0.17689999;fill:url(#linearGradient3253)"
       id="path16330" />
    <path
       id="rect15872"
       style="opacity:0.30325;fill:none;stroke:#ff5555;stroke-width:0.90688998;filter:url(#filter15931)"
       inkscape:connector-curvature="0"
       transform="matrix(1.0029103,0.24870624,-0.24062569,0.97049225,-9.7081099,543.52133)"
       d="m 337.39,272 h 34.317 V 406.86 H 337.39 z m -34.85,0 h 34.317 V 406.86 H 302.54 z m -34.345,0 h 34.317 v 134.86 h -34.317 z m -34.345,0 h 34.317 V 406.86 H 233.85 z m -33.84,0 h 34.317 V 406.86 H 200.01 z m -34.85,0 h 34.317 V 406.86 H 165.16 z m -34.85,0 h 34.317 V 406.86 H 130.31 z m 0.50955,108.11 h 240.64 v 27.216 h -240.64 z m 0,-26.769 h 240.61 v 27.216 h -240.61 z m 0,-27.779 h 241.15 v 27.216 h -241.15 z m 0,-26.769 h 240.72 v 27.216 h -240.72 z m 0,-26.769 h 240.66 v 27.216 h -240.66 z" />
    <g
       transform="matrix(0.78767,0.22489,-0.27454,0.96157,35.9633,543.5686)"
       id="g17329">
      <path
         d="m 259.61,204.84 c 0,5.021 -4.9749,9.0914 -11.112,9.0914 -6.1368,0 -11.112,-4.0703 -11.112,-9.0914 0,-5.021 4.9749,-9.0914 11.112,-9.0914 6.1368,0 11.112,4.0704 11.112,9.0914 z"
         transform="matrix(0.83717,0.19772,-0.22343,0.9462,108.21,-29.947)"
         inkscape:connector-curvature="0"
         style="fill:#782121"
         id="path15008" />
      <path
         d="m 254.05,204.34 c 0,2.5105 -2.2613,4.5457 -5.0508,4.5457 -2.7895,0 -5.0508,-2.0352 -5.0508,-4.5457 0,-2.5105 2.2613,-4.5457 5.0508,-4.5457 2.7895,0 5.0508,2.0352 5.0508,4.5457 z"
         transform="matrix(1.4056,0.33196,-0.37026,1.568,-3.1204,-189.88)"
         inkscape:connector-curvature="0"
         style="fill:#ffffff"
         id="path15010" />
      <path
         d="m 272.22,202.34 c -7.0935,-1.6753 -13.976,1.7596 -15.372,7.6721 -1.3962,5.9125 3.2224,12.064 10.316,13.739 7.0935,1.6753 13.976,-1.7596 15.372,-7.6721 1.3962,-5.9125 -3.2224,-12.064 -10.316,-13.739 z m -1.1145,4.7197 c 3.4661,0.81867 5.6431,4.1622 4.8625,7.4682 -0.7807,3.3059 -4.2234,5.3223 -7.6895,4.5037 -3.4661,-0.81867 -5.6431,-4.1622 -4.8625,-7.4682 0.7807,-3.3059 4.2234,-5.3223 7.6895,-4.5037 z"
         inkscape:connector-curvature="0"
         style="fill:#b3b3b3"
         id="path16190" />
      <path
         inkscape:connector-curvature="0"
         style="fill:url(#radialGradient3335)"
         d="m 272.22,202.34 c -7.0935,-1.6753 -13.976,1.7596 -15.372,7.6721 -1.3962,5.9125 3.2224,12.064 10.316,13.739 7.0935,1.6753 13.976,-1.7596 15.372,-7.6721 1.3962,-5.9125 -3.2224,-12.064 -10.316,-13.739 z m -1.1145,4.7197 c 3.4661,0.81867 5.6431,4.1622 4.8625,7.4682 -0.7807,3.3059 -4.2234,5.3223 -7.6895,4.5037 -3.4661,-0.81867 -5.6431,-4.1622 -4.8625,-7.4682 0.7807,-3.3059 4.2234,-5.3223 7.6895,-4.5037 z"
         id="path16312" />
      <path
         d="m 271.3,204.69 c -5.5619,-1.3136 -10.958,1.3797 -12.053,6.0156 -1.0947,4.636 2.5266,9.459 8.0886,10.773 5.5619,1.3136 10.958,-1.3797 12.053,-6.0156 1.0947,-4.636 -2.5266,-9.459 -8.0886,-10.773 z m -0.8739,3.7006 c 2.7178,0.64188 4.4247,3.2636 3.8126,5.8557 -0.61212,2.5922 -3.3115,4.1732 -6.0293,3.5313 -2.7178,-0.64188 -4.4247,-3.2636 -3.8126,-5.8557 0.61213,-2.5921 3.3115,-4.1732 6.0293,-3.5313 z"
         inkscape:connector-curvature="0"
         style="fill:url(#radialGradient3337)"
         id="path16324" />
    </g>
    <path
       inkscape:connector-curvature="0"
       style="opacity:0.20216998;fill:none;stroke:#e9afaf;stroke-width:0.97565001;stroke-dasharray:1.95129211, 0.97564606"
       d="m 41.2523,823.8386 271.61,65.708 -1.1722,-1.0011"
       id="path16328" />
    <path
       inkscape:connector-curvature="0"
       inkscape:transform-center-y="-12.702552"
       sodipodi:nodetypes="cccc"
       inkscape:transform-center-x="-16.923638"
       d="m 245.3573,1041.0886 c -4.1957,-15.751 -2.6149,-32.874 6.1002,-45.576 13.665,8.9107 29.56,0.88956 39.301,0.38788 z"
       style="fill:#ffaaaa"
       id="path16514" />
    <path
       inkscape:connector-curvature="0"
       inkscape:transform-center-y="-13.023068"
       sodipodi:nodetypes="cccc"
       inkscape:transform-center-x="-17.53297"
       d="m 243.6073,1039.1886 c -0.25475,-14.908 -3.7891,-26.175 8.4402,-42.691 20.419,7.6374 19.395,0.78439 36.983,1.1699 z"
       style="fill:#fff9f9"
       id="path16512" />
    <path
       sodipodi:nodetypes="cccc"
       inkscape:connector-curvature="0"
       inkscape:transform-center-y="-13.023068"
       inkscape:transform-center-x="-17.53297"
       d="m 246.2673,1040.0886 c -0.25475,-14.908 -7.3368,-27.062 4.8925,-43.578 20.419,7.6374 21.618,0.92483 39.206,1.3103 z"
       style="fill:url(#linearGradient3155)"
       id="path16519" />
    <path
       inkscape:connector-curvature="0"
       style="opacity:0"
       d="m 10.5073,830.1706 c 3.1394,2.1335 5.7168,5.0099 7.9183,8.0808 0.62925,0.87774 1.198,1.7973 1.797,2.6959 2.6138,3.9124 4.7459,8.2118 7.6558,11.923 0.37513,0.47836 0.78761,0.92621 1.1814,1.3893 0.79002,0.67534 1.4357,1.3315 2.3822,1.7805 0.9265,0.43955 1.5485,0.43865 2.5672,0.51483 1.9268,0.14408 2.2105,0.11767 4.2756,0.15711 6.6099,0.11771 13.219,-0.10537 19.829,-0.14821 4.2498,0.002 8.5082,-0.0705 12.752,0.21471 1.4403,0.0968 2.8762,0.25172 4.3156,0.36205 1.9018,0.99417 1.5596,0.56668 1.6431,4.7462 0.0074,0.3711 -0.54433,0.50712 -0.78532,0.78941 -0.06076,0.0712 -0.07367,0.17206 -0.10932,0.25858 -0.26534,0.64403 -0.20377,0.3294 -0.20497,0.99028 0.24261,1.3568 0.92899,2.7276 2.0617,3.5543 0.28494,0.28786 -3.7861,4.3175 -4.071,4.0297 -0.27793,-0.20922 -0.57564,-0.39446 -0.83378,-0.62766 -1.6891,-1.5259 -2.8475,-3.6697 -3.101,-5.9451 -0.07355,-0.66029 0.0097,-1.3287 0.0145,-1.9931 0.15534,-0.62379 0.2329,-1.2723 0.46602,-1.8714 0.36161,-0.92926 1.1383,-1.9802 1.9311,-2.5919 0.06918,-0.0534 0.20674,0.032 0.23586,0.11438 0.9854,2.7882 0.96235,2.715 1.2696,4.2529 0.18251,0.0622 0.73041,0.12557 0.54753,0.18671 -0.3822,0.12776 -3.9657,0.35051 -4.0397,0.35518 -2.7452,0.17353 -3.5443,0.20247 -6.3998,0.2947 -1.2514,0.0404 -2.503,0.0708 -3.7545,0.10616 -7.9563,0.15001 -15.938,0.21335 -23.857,-0.70388 -1.6104,-0.21363 -3.2939,-0.38689 -4.8778,-0.78052 -2.8952,-0.71952 -5.4297,-2.1522 -7.5274,-4.2782 -0.53709,-0.55876 -1.1033,-1.0909 -1.6113,-1.6763 -3.1992,-3.6864 -5.5719,-8.0043 -8.1652,-12.111 -2.2777,-3.5369 -4.5959,-7.0542 -7.5581,-10.069 -0.28286,-0.28655 3.7695,-4.2868 4.0524,-4.0003 z"
       id="path4378" />
    <path
       inkscape:connector-curvature="0"
       style="opacity:0"
       d="m 111.6573,865.9686 c 0.30471,3.3786 -0.82041,6.8212 -2.9423,9.4705 -0.56761,0.70868 -1.2634,1.3044 -1.8951,1.9566 -0.76057,0.55398 -1.4797,1.1698 -2.2817,1.6619 -3.7604,2.3076 -8.2109,3.3021 -12.484,4.1451 -1.0114,0.2052 -2.0275,0.3858 -3.0406,0.58206 -0.15871,0.0307 -1.0275,0.0841 -1.2302,0.32657 0.02707,-0.008 0.08263,-0.0528 0.08122,-0.0246 -0.02492,0.49934 -0.1818,0.98339 -0.25933,1.4773 -0.18893,1.2037 -0.3393,2.4121 -0.47951,3.6221 -0.11748,1.301 -0.15066,2.6066 -0.1608,3.9121 -0.0029,0.37148 -0.0297,0.74397 -0.0025,1.1145 0.04607,0.6282 0.16866,0.87154 0.36653,1.4394 0.25676,0.35624 0.64357,0.51656 0.99937,0.74332 0.63384,0.40395 1.2344,0.78497 1.9014,1.1375 2.8696,1.4053 6.0274,2.0042 9.1431,2.5874 2.0812,0.34141 4.1697,0.64547 6.2629,0.9046 0.45837,0.0567 0.94036,0.003 1.3772,0.15261 0.21222,0.0729 -0.44463,0.0609 -0.66694,0.0914 0.40294,-0.11164 1.9817,5.5868 1.5787,5.6984 -1.5308,0.0776 -2.905,0.19654 -4.4172,0.13115 -2.3555,-0.10185 -4.684,-0.48753 -6.9835,-0.99425 -3.4963,-0.96973 -6.9951,-2.0381 -10.038,-4.0828 -1.9945,-1.2596 -3.9251,-2.5694 -4.881,-4.8359 -0.13905,-0.44918 -0.31069,-0.88954 -0.41714,-1.3476 -0.55556,-2.3904 -0.34649,-4.9106 -0.13837,-7.3254 0.34837,-2.3821 0.90029,-4.733 1.6804,-7.0118 0.18883,-0.30629 0.34808,-0.63292 0.56649,-0.91888 1.461,-1.9128 3.7442,-2.642 5.9722,-3.2618 2.1985,-0.58962 4.4147,-1.1238 6.6024,-1.7528 1.2146,-0.34926 3.0411,-0.89576 4.2189,-1.4292 0.57865,-0.26209 1.117,-0.60531 1.6755,-0.90796 1.17,-0.92331 1.5348,-1.0696 2.3925,-2.2979 1.0192,-1.4595 1.4464,-3.2584 1.8382,-4.9636 0,-0.40031 5.6611,-0.40031 5.6611,0 z"
       id="path4380" />
  </g>
  <metadata
     id="metadata174">
    <rdf:RDF>
      <cc:Work>
        <dc:format>image/svg+xml</dc:format>
        <dc:type
           rdf:resource="http://purl.org/dc/dcmitype/StillImage" />
        <cc:license
           rdf:resource="http://creativecommons.org/licenses/publicdomain/" />
        <dc:publisher>
          <cc:Agent
             rdf:about="http://openclipart.org/">
            <dc:title>Openclipart</dc:title>
          </cc:Agent>
        </dc:publisher>
        <dc:title>Calendar</dc:title>
        <dc:date>2012-05-17T17:32:09</dc:date>
        <dc:description />
        <dc:source>https://openclipart.org/detail/170087/calendar-by-helisdf</dc:source>
        <dc:creator>
          <cc:Agent>
            <dc:title>helisdf</dc:title>
          </cc:Agent>
        </dc:creator>
        <dc:subject>
          <rdf:Bag>
            <rdf:li>calendar</rdf:li>
            <rdf:li>icon</rdf:li>
            <rdf:li>schedule</rdf:li>
            <rdf:li>event</rdf:li>
          </rdf:Bag>
        </dc:subject>
      </cc:Work>
      <cc:License
         rdf:about="http://creativecommons.org/licenses/publicdomain/">
        <cc:permits
           rdf:resource="http://creativecommons.org/ns#Reproduction" />
        <cc:permits
           rdf:resource="http://creativecommons.org/ns#Distribution" />
        <cc:permits
           rdf:resource="http://creativecommons.org/ns#DerivativeWorks" />
      </cc:License>
    </rdf:RDF>
  </metadata>
</svg>
