<svg xmlns="http://www.w3.org/2000/svg" viewBox="0 0 96.123 96.123"><defs><style>.a{fill:#1abb9c;}</style></defs><path class="a" d="M67.487,0H28.636A28.668,28.668,0,0,0,0,28.636V67.487A28.668,28.668,0,0,0,28.636,96.123H67.487A28.668,28.668,0,0,0,96.123,67.487V28.636A28.668,28.668,0,0,0,67.487,0ZM86.453,67.487A18.966,18.966,0,0,1,67.487,86.453H28.636A18.966,18.966,0,0,1,9.67,67.487V28.636A18.966,18.966,0,0,1,28.636,9.67H67.487A18.966,18.966,0,0,1,86.453,28.636V67.487Z"/><path class="a" d="M157.861,133a24.861,24.861,0,1,0,24.861,24.861A24.889,24.889,0,0,0,157.861,133Zm0,40.052a15.191,15.191,0,1,1,15.191-15.191A15.191,15.191,0,0,1,157.861,173.052Z" transform="translate(-109.799 -109.799)"/><circle class="a" cx="5.957" cy="5.957" r="5.957" transform="translate(67.013 17.43)"/></svg>