<svg xmlns="http://www.w3.org/2000/svg" version="1.1" xmlns:xlink="http://www.w3.org/1999/xlink" xmlns:svgjs="http://svgjs.dev/svgjs" width="1500" height="329" viewBox="0 0 1500 329"><g transform="matrix(1,0,0,1,-0.9090909090909918,-1.8821460627373483)"><svg viewBox="0 0 396 87" data-background-color="#fafafa" preserveAspectRatio="xMidYMid meet" height="329" width="1500" xmlns="http://www.w3.org/2000/svg" xmlns:xlink="http://www.w3.org/1999/xlink"><g id="tight-bounds" transform="matrix(1,0,0,1,0.2400000000000091,0.4977103570156487)"><svg viewBox="0 0 395.52 86.00457928596873" height="86.00457928596873" width="395.52"><g><svg viewBox="0 0 530.608426283905 115.37913245382586" height="86.00457928596873" width="395.52"><g transform="matrix(1,0,0,1,0,15.946030606860162)"><svg viewBox="0 0 395.52 83.48707124010554" height="83.48707124010554" width="395.52"><g id="textblocktransform"><svg viewBox="0 0 395.52 83.48707124010554" height="83.48707124010554" width="395.52" id="textblock"><g><svg viewBox="0 0 395.52 83.48707124010554" height="83.48707124010554" width="395.52"><g transform="matrix(1,0,0,1,0,0)"><svg width="395.52" viewBox="1.15 -23.55 179.985 38" height="83.48707124010554" data-palette-color="#130912"><path d="M11.3 1.3L11.3 1.3Q10.25 1.15 9.88 0.58 9.5 0 9.5-1L9.5-1Q9.5-1.25 9.58-1.8 9.65-2.35 9.75-3.15L9.75-3.15 9.75-3.55Q9.75-4.25 9.5-4.35L9.5-4.35Q9.45-4.4 9.25-4.4L9.25-4.4Q8.9-4.4 7.95-3.75L7.95-3.75Q7.9-3.7 7.4-3.28 6.9-2.85 5.95-2.05L5.95-2.05Q3.2 0.4 2.2 0.15L2.2 0.15Q1.15-0.1 1.15-1.25L1.15-1.25Q1.15-2.35 1.95-3.9L1.95-3.9Q2.6-5.3 3.55-6.63 4.5-7.95 5.05-8.35L5.05-8.35Q5.45-8.6 5.7-8.6L5.7-8.6Q5.95-8.6 6.15-8.4L6.15-8.4Q6.25-8.3 6.25-8.1L6.25-8.1Q6.25-7.9 6-7.65L6-7.65Q5.5-7.15 5.05-6.13 4.6-5.1 4.6-4.3L4.6-4.3Q4.6-4.2 4.63-4.05 4.65-3.9 4.7-3.7L4.7-3.7Q4.95-3.55 5.25-3.55L5.25-3.55Q5.85-3.55 6.9-4.15L6.9-4.15Q7.3-4.4 8-4.88 8.7-5.35 9.7-6.1L9.7-6.1Q10.1-6.4 10.6-6.4L10.6-6.4Q11.15-6.4 11.53-6.03 11.9-5.65 11.9-5L11.9-5Q11.9-4.9 11.88-4.73 11.85-4.55 11.8-4.3L11.8-4.3Q11.7-3.9 11.6-3.55 11.5-3.2 11.45-2.85L11.45-2.85Q11.4-2.65 11.4-2.33 11.4-2 11.4-1.6L11.4-1.6Q11.4-0.5 12.55-0.5L12.55-0.5Q13.05-0.5 13.58-0.68 14.1-0.85 14.35-1.1L14.35-1.1Q16.75-3.2 19.05-6.55L19.05-6.55 19-7.15Q18.95-7.65 19.2-8.13 19.45-8.6 19.85-9.1L19.85-9.1Q20-9.3 20.25-9.3L20.25-9.3Q20.5-9.3 20.73-9.08 20.95-8.85 20.95-8.5L20.95-8.5Q20.95-8.25 20.8-7.95L20.8-7.95Q20.5-7.4 19.85-6.38 19.2-5.35 18.35-4.15 17.5-2.95 16.65-1.9 15.8-0.85 15.1-0.25L15.1-0.25 15.1-0.2Q14.25 0.55 13.15 0.98 12.05 1.4 11.3 1.3ZM23.1 0.55L23.1 0.55Q22.05 0.55 21.25 0L21.25 0Q19.95-1 19.95-3L19.95-3Q19.95-5 21.35-7.25 22.75-9.5 25.6-11.4L25.6-11.4Q26.1-11.75 26.95-11.75L26.95-11.75Q28.05-11.75 28.92-11.15 29.8-10.55 29.6-9.6L29.6-9.6Q29.25-8.05 28.07-6.85 26.9-5.65 25.32-4.73 23.75-3.8 22.1-2.95L22.1-2.95Q22.05-2.8 22.02-2.65 22-2.5 22-2.35L22-2.35Q22-1.65 22.47-1.13 22.95-0.6 23.8-0.6L23.8-0.6Q24.45-0.6 24.9-0.8L24.9-0.8Q25.7-1.1 26.22-1.35 26.75-1.6 27.45-2.1 28.15-2.6 29.35-3.6L29.35-3.6Q29.9-4 30-4L30-4Q30.3-4 30.2-3.55L30.2-3.55Q29.7-2.75 28.47-1.8 27.25-0.85 25.77-0.15 24.3 0.55 23.1 0.55ZM22.4-4.3L22.4-4.3Q22.8-4.3 24.05-5.1 25.3-5.9 26.4-6.85L26.4-6.85Q28.3-8.6 28.3-9.55L28.3-9.55Q28.3-9.8 28.15-10L28.15-10Q28-10.25 27.7-10.25L27.7-10.25Q26.75-10.25 24.5-8L24.5-8Q22.95-6.5 22.4-4.3ZM30.3 3.3L30.3 3.3Q29.75 3.3 29.37 2.95 29 2.6 29.05 2.1L29.05 2.1Q29.14 0.05 29.82-1.85 30.5-3.75 31.8-6.4L31.8-6.4Q31.95-6.75 32.07-7.03 32.2-7.3 32.3-7.5L32.3-7.5Q33.4-9.85 34.55-12 35.7-14.15 36.84-16.2L36.84-16.2 37.55-17.45Q38.75-19.6 39.65-20.93 40.55-22.25 41.45-22.85L41.45-22.85Q42.59-23.55 42.84-23.55L42.84-23.55Q43.25-23.55 43.65-22.85L43.65-22.85Q43.9-22.35 42.65-20.4L42.65-20.4Q42-19.4 41.02-17.9 40.05-16.4 38.7-14.5L38.7-14.5Q38.45-14.15 37.87-13.28 37.3-12.4 36.34-11L36.34-11Q35.4-9.6 34.7-8.47 34-7.35 33.55-6.5L33.55-6.5Q32.65-4.85 31.85-2.98 31.05-1.1 31.05-0.05L31.05-0.05Q31.05 0.9 31.8 0.9L31.8 0.9Q33 0.9 35.65-1.15L35.65-1.15Q35.95-1.1 35.95-0.85L35.95-0.85Q35.95-0.65 35.45-0.15L35.45-0.15Q35 0.3 34.32 0.83 33.65 1.35 32.75 2.05L32.75 2.05 31.95 2.65Q31.14 3.3 30.3 3.3ZM37.99 3.3L37.99 3.3Q37.44 3.3 37.07 2.95 36.69 2.6 36.74 2.1L36.74 2.1Q36.84 0.05 37.52-1.85 38.19-3.75 39.49-6.4L39.49-6.4Q39.64-6.75 39.77-7.03 39.89-7.3 39.99-7.5L39.99-7.5Q41.09-9.85 42.24-12 43.39-14.15 44.54-16.2L44.54-16.2 45.24-17.45Q46.44-19.6 47.34-20.93 48.24-22.25 49.14-22.85L49.14-22.85Q50.29-23.55 50.54-23.55L50.54-23.55Q50.94-23.55 51.34-22.85L51.34-22.85Q51.59-22.35 50.34-20.4L50.34-20.4Q49.69-19.4 48.72-17.9 47.74-16.4 46.39-14.5L46.39-14.5Q46.14-14.15 45.57-13.28 44.99-12.4 44.04-11L44.04-11Q43.09-9.6 42.39-8.47 41.69-7.35 41.24-6.5L41.24-6.5Q40.34-4.85 39.54-2.98 38.74-1.1 38.74-0.05L38.74-0.05Q38.74 0.9 39.49 0.9L39.49 0.9Q40.69 0.9 43.34-1.15L43.34-1.15Q43.64-1.1 43.64-0.85L43.64-0.85Q43.64-0.65 43.14-0.15L43.14-0.15Q42.69 0.3 42.02 0.83 41.34 1.35 40.44 2.05L40.44 2.05 39.64 2.65Q38.84 3.3 37.99 3.3ZM45.64 2.25L45.64 2.25Q44.49 2.25 44.49 1L44.49 1Q44.49 0.05 44.99-1L44.99-1 48.54-8.75Q48.94-9.6 49.64-11.03 50.34-12.45 51.34-14.5L51.34-14.5Q51.44-14.7 51.57-14.95 51.69-15.2 51.84-15.45L51.84-15.45Q52.14-16 52.44-16.65L52.44-16.65 53.04-17.9Q53.99-19.9 54.72-21.08 55.44-22.25 56.34-22.85L56.34-22.85Q57.49-23.55 57.79-23.55L57.79-23.55Q58.14-23.55 58.54-22.85L58.54-22.85Q58.54-22.8 58.57-22.8 58.59-22.8 58.59-22.75L58.59-22.75Q58.59-22.45 58.14-21.75L58.14-21.75Q57.84-21.3 57.32-20.53 56.79-19.75 56.04-18.65L56.04-18.65Q53.29-14.7 51.37-11.5 49.44-8.3 48.14-5.05L48.14-5.05Q49.39-6.15 50.82-7.25 52.24-8.35 53.24-8.95L53.24-8.95Q54.64-9.75 55.69-9.75L55.69-9.75Q57.29-9.75 57.29-7.65L57.29-7.65Q57.29-5.35 55.94-3.48 54.59-1.6 52.22-0.23 49.84 1.15 46.84 2L46.84 2Q46.19 2.25 45.64 2.25ZM46.79 0.4L47.39 0.45Q49.24 0.45 51.09-0.8L51.09-0.8Q52.94-2 54.12-3.73 55.29-5.45 55.29-6.8L55.29-6.8Q55.29-7.65 54.74-8.2L54.74-8.2Q54.29-8.3 52.99-7.58 51.69-6.85 50.22-5.68 48.74-4.5 47.59-3.25L47.59-3.25Q46.59-0.2 46.79 0.4L46.79 0.4ZM60.54 0.55L60.54 0.55Q59.49 0.55 58.69 0L58.69 0Q57.39-1 57.39-3L57.39-3Q57.39-5 58.79-7.25 60.19-9.5 63.04-11.4L63.04-11.4Q63.54-11.75 64.39-11.75L64.39-11.75Q65.49-11.75 66.36-11.15 67.24-10.55 67.04-9.6L67.04-9.6Q66.69-8.05 65.51-6.85 64.34-5.65 62.76-4.73 61.19-3.8 59.54-2.95L59.54-2.95Q59.49-2.8 59.46-2.65 59.44-2.5 59.44-2.35L59.44-2.35Q59.44-1.65 59.91-1.13 60.39-0.6 61.24-0.6L61.24-0.6Q61.89-0.6 62.34-0.8L62.34-0.8Q63.14-1.1 63.66-1.35 64.19-1.6 64.89-2.1 65.59-2.6 66.79-3.6L66.79-3.6Q67.34-4 67.44-4L67.44-4Q67.74-4 67.64-3.55L67.64-3.55Q67.14-2.75 65.91-1.8 64.69-0.85 63.21-0.15 61.74 0.55 60.54 0.55ZM59.84-4.3L59.84-4.3Q60.24-4.3 61.49-5.1 62.74-5.9 63.84-6.85L63.84-6.85Q65.74-8.6 65.74-9.55L65.74-9.55Q65.74-9.8 65.59-10L65.59-10Q65.44-10.25 65.14-10.25L65.14-10.25Q64.19-10.25 61.94-8L61.94-8Q60.39-6.5 59.84-4.3ZM72.74-10.95L72.74-10.95Q72.09-10.95 72.09-11.25L72.09-11.25Q72.09-11.5 72.46-11.98 72.84-12.45 73.34-12.8L73.34-12.8Q74.44-13.5 75.06-14 75.69-14.5 76.59-15.7L76.59-15.7Q76.64-15.6 76.64-15.3L76.64-15.3Q76.64-14.65 76.11-13.73 75.59-12.8 74.94-12.05 74.29-11.3 73.79-11.1L73.79-11.1Q73.34-10.95 72.74-10.95ZM68.29 1.3L68.29 1.3Q67.89 1.3 67.54 1 67.19 0.7 67.19 0.2L67.19 0.2Q67.19-0.85 68.64-3.65L68.64-3.65 69.19-4.75Q69.29-4.85 69.46-5.25 69.64-5.65 69.99-6.3L69.99-6.3Q70.34-7 70.54-7.55 70.74-8.1 70.84-8.6L70.84-8.6Q70.84-8.65 71.04-8.8 71.24-8.95 71.44-9.05L71.44-9.05 71.74-9.1Q72.14-9.1 72.41-8.95 72.69-8.8 72.59-8.55L72.59-8.55Q72.24-7.8 71.99-7.25 71.74-6.7 71.59-6.3L71.59-6.3 71.54-6.3Q70.99-5.05 70.61-3.93 70.24-2.8 70.29-1.8L70.29-1.8 70.34-0.45Q70.29 0.05 69.99 0.4L69.99 0.4Q69.79 0.55 69.44 0.78 69.09 1 68.54 1.25L68.54 1.25Q68.49 1.3 68.29 1.3ZM73.28 0.8L73.28 0.8Q72.38 0.8 72.38 0.1L72.38 0.1Q72.38-0.35 72.71-1.05 73.03-1.75 73.38-2.4L73.38-2.4Q74.33-4.1 75.13-5.7 75.93-7.3 76.68-9.1L76.68-9.1Q77.03-9.9 77.73-9.9L77.73-9.9Q78.48-9.9 78.18-9L78.18-9Q77.88-8.25 77.58-7.65L77.58-7.65Q76.18-4.8 76.18-3.8L76.18-3.8Q76.18-3.35 76.48-3.25L76.48-3.25Q77.18-3.8 77.53-4.08 77.88-4.35 77.93-4.4L77.93-4.4Q78.63-4.95 79.51-5.68 80.38-6.4 81.43-7.35L81.43-7.35Q83.08-8.85 84.18-8.85L84.18-8.85Q85.53-8.85 85.33-6.4L85.33-6.4Q85.28-5.45 85.33-4.55L85.33-4.55Q85.38-4.35 85.38-3.98 85.38-3.6 85.38-3.1L85.38-3.1Q85.38-2.6 85.98-2.6L85.98-2.6Q86.68-2.6 87.28-3L87.28-3 88.38-3.75 89.48-4.45Q89.58-4.5 89.83-4.5L89.83-4.5Q90.13-4.5 89.83-4.05L89.83-4.05Q86.68-0.15 84.63-0.15L84.63-0.15Q84.23-0.15 83.83-0.3L83.83-0.3Q83.48-0.45 83.33-1.18 83.18-1.9 83.16-2.75 83.13-3.6 83.13-4.05L83.13-4.05 83.18-5.7Q83.18-6.75 82.63-6.75L82.63-6.75Q81.33-6.75 76.23-1.4L76.23-1.4Q75.83-0.9 74.98-0.05 74.13 0.8 73.28 0.8ZM89.83 10.75L89.83 10.75Q88.73 10.75 88.01 9.73 87.28 8.7 87.28 7.4L87.28 7.4Q87.28 6.35 87.58 5.85L87.58 5.85Q87.98 5.3 88.33 5.3L88.33 5.3Q88.73 5.3 88.73 5.75L88.73 5.75Q88.73 6.15 88.43 6.55L88.43 6.55Q88.23 6.8 88.23 7.2L88.23 7.2Q88.23 7.95 88.73 8.7 89.23 9.45 89.93 9.45L89.93 9.45Q90.03 9.45 90.13 9.43 90.23 9.4 90.38 9.35L90.38 9.35Q92.73 8.45 94.68 5.6L94.68 5.6Q96.63 2.7 97.88-0.78 99.13-4.25 99.73-7.2L99.73-7.2 99.53-7.25Q99.38-7.35 99.08-7.03 98.78-6.7 98.48-6.33 98.18-5.95 98.08-5.8L98.08-5.8Q97.93-5.6 97.31-4.93 96.68-4.25 95.83-3.43 94.98-2.6 94.13-1.8 93.28-1 92.68-0.5L92.68-0.5Q91.93 0.15 90.83 0.15L90.83 0.15Q90.53 0.15 90.23 0.05L90.23 0.05Q89.68-0.25 89.68-0.9L89.68-0.9Q89.68-1.75 90.68-3.5L90.68-3.5Q91.43-4.8 92.93-6.78 94.43-8.75 96.23-10.15L96.23-10.15Q97.53-11.2 98.93-11.5L98.93-11.5Q99.18-11.55 99.43-11.58 99.68-11.6 99.93-11.65L99.93-11.65Q100.18-11.65 100.38-11.65 100.58-11.65 100.78-11.7L100.78-11.7Q100.83-11.7 101.56-11.78 102.28-11.85 102.48-12.25L102.48-12.25 102.63-12.3Q102.83-12.3 103.03-12.1L103.03-12.1Q103.18-11.95 103.18-11.5L103.18-11.5Q103.18-11.35 103.13-11.13 103.08-10.9 103.08-10.6L103.08-10.6 103.08-10.55Q103.08-8.7 102.38-6.73 101.68-4.75 100.88-2.7L100.88-2.7Q99.23 1.45 96.71 5 94.18 8.55 91.13 10.35L91.13 10.35Q90.48 10.75 89.83 10.75ZM91.33-1.65L91.33-1.65Q91.53-1.55 91.63-1.55L91.63-1.55Q91.88-1.55 92.38-1.8L92.38-1.8Q92.73-2 93.11-2.3 93.48-2.6 93.98-3L93.98-3Q94.33-3.25 94.78-3.7 95.23-4.15 95.83-4.75L95.83-4.75 96.78-5.65Q97.48-6.35 98.28-7.3 99.08-8.25 99.63-9.15 100.18-10.05 100.18-10.55L100.18-10.55Q100.18-11 99.63-11L99.63-11Q99.08-11 98.16-10.4 97.23-9.8 96.26-8.95 95.28-8.1 94.58-7.3L94.58-7.3Q93.93-6.65 93.36-5.88 92.78-5.1 92.23-4.25L92.23-4.25Q91.58-3.3 91.33-2.6L91.33-2.6Q91.03-1.85 91.33-1.65ZM114.88 0.55L114.88 0.55Q113.83 0.55 113.03 0L113.03 0Q111.73-1 111.73-3L111.73-3Q111.73-5 113.13-7.25 114.53-9.5 117.38-11.4L117.38-11.4Q117.88-11.75 118.73-11.75L118.73-11.75Q119.83-11.75 120.7-11.15 121.58-10.55 121.38-9.6L121.38-9.6Q121.03-8.05 119.85-6.85 118.68-5.65 117.1-4.73 115.53-3.8 113.88-2.95L113.88-2.95Q113.83-2.8 113.8-2.65 113.78-2.5 113.78-2.35L113.78-2.35Q113.78-1.65 114.25-1.13 114.73-0.6 115.58-0.6L115.58-0.6Q116.23-0.6 116.68-0.8L116.68-0.8Q117.48-1.1 118-1.35 118.53-1.6 119.23-2.1 119.93-2.6 121.13-3.6L121.13-3.6Q121.68-4 121.78-4L121.78-4Q122.08-4 121.98-3.55L121.98-3.55Q121.48-2.75 120.25-1.8 119.03-0.85 117.55-0.15 116.08 0.55 114.88 0.55ZM114.18-4.3L114.18-4.3Q114.58-4.3 115.83-5.1 117.08-5.9 118.18-6.85L118.18-6.85Q120.08-8.6 120.08-9.55L120.08-9.55Q120.08-9.8 119.93-10L119.93-10Q119.78-10.25 119.48-10.25L119.48-10.25Q118.53-10.25 116.28-8L116.28-8Q114.73-6.5 114.18-4.3ZM131.22 1.45L131.22 1.45Q129.92 1.45 129.92-0.45L129.92-0.45Q129.92-2.4 131.27-6.2L131.27-6.2Q129.67-4.15 128.1-2.58 126.52-1 124.97 0L124.97 0Q123.87 0.8 122.97 0.8L122.97 0.8Q121.77 0.8 121.77-0.85L121.77-0.85Q121.77-1.75 122.07-2.5L122.07-2.5Q122.47-3.6 123.25-5.05 124.02-6.5 125.07-7.95 126.12-9.4 127.22-10.4L127.22-10.4Q127.62-10.65 127.72-10.65L127.72-10.65Q128.07-10.65 128.07-10.25L128.07-10.25Q128.07-10.1 127.92-9.85L127.92-9.85Q127.47-9.35 126.87-8.4 126.27-7.45 125.72-6.35 125.17-5.25 124.8-4.33 124.42-3.4 124.42-2.95L124.42-2.95Q124.42-2.05 125.22-2.05L125.22-2.05Q125.57-2.05 125.97-2.3L125.97-2.3Q127.82-3.45 129.37-5.08 130.92-6.7 132.27-9.5L132.27-9.5Q132.72-9.8 133.27-9.8L133.27-9.8Q133.82-9.8 134.2-9.45 134.57-9.1 134.57-8.5L134.57-8.5Q134.57-8.05 134.32-7.45L134.32-7.45Q134.27-7.25 134.15-7.05 134.02-6.85 133.87-6.6L133.87-6.6Q133.72-6.35 133.62-6.13 133.52-5.9 133.42-5.75L133.42-5.75Q132.47-4.05 131.95-2.9 131.42-1.75 131.42-0.9L131.42-0.9Q131.42 0.1 132.32 0.1L132.32 0.1Q133.12 0.1 133.92-0.5L133.92-0.5Q134.42-0.85 134.77-0.85L134.77-0.85Q135.32-0.85 134.55-0.18 133.77 0.5 132.67 1.05L132.67 1.05Q131.62 1.45 131.22 1.45ZM135.97 1.05L135.97 1.05Q135.32 1.05 135.32-0.1L135.32-0.1Q135.32-1.05 135.77-1.95L135.77-1.95Q136.92-4.15 137.87-6.3L137.87-6.3Q138.52-7.6 139.1-8.8 139.67-10 140.17-11L140.17-11Q140.47-11.3 140.77-11.3L140.77-11.3Q141.42-11.3 141.17-10.7L141.17-10.7Q141.07-10.35 140.9-9.88 140.72-9.4 140.47-8.75L140.47-8.75Q139.67-6.65 139.52-5.8L139.52-5.8Q140.92-7.05 142.4-8.13 143.87-9.2 145.17-9.9 146.47-10.6 147.37-10.6L147.37-10.6Q148.17-10.6 148.17-9.95L148.17-9.95Q148.17-9.4 147.67-8.78 147.17-8.15 146.67-8.15L146.67-8.15Q146.42-8.15 146.27-8.3L146.27-8.3Q146.12-8.35 145.67-8.35L145.67-8.35Q144.07-8.35 142.32-6.8L142.32-6.8Q140.47-5.25 138.97-3.08 137.47-0.9 136.77 0.7L136.77 0.7Q136.42 1.05 135.97 1.05ZM147.47 0.85L147.47 0.85Q145.52 0.85 145.52-0.9L145.52-0.9Q145.52-1 145.54-1.25 145.57-1.5 145.62-1.85L145.62-1.85Q146.12-3.9 147.64-5.83 149.17-7.75 151.17-9.2L151.17-9.2Q151.92-9.8 153.57-9.8L153.57-9.8Q154.52-9.8 155.24-9.53 155.97-9.25 156.27-8.7L156.27-8.7Q156.57-8.2 156.57-7.55L156.57-7.55Q156.57-7.45 156.54-7.25 156.52-7.05 156.47-6.8L156.47-6.8Q156.57-6.85 156.79-6.85 157.02-6.85 157.37-6.9L157.37-6.9Q157.72-6.95 158.04-7 158.37-7.05 158.72-7.05L158.72-7.05 158.92-7.05Q159.47-7.05 159.04-6.63 158.62-6.2 157.92-6.1L157.92-6.1 156.22-5.9Q155.72-4.5 154.49-3.1 153.27-1.7 151.79-0.68 150.32 0.35 149.02 0.65L149.02 0.65Q148.27 0.85 147.47 0.85ZM153.87-6.6L153.87-6.6Q154.17-6.6 154.59-6.63 155.02-6.65 155.57-6.7L155.57-6.7Q155.62-6.8 155.62-7.15L155.62-7.15Q155.62-8.05 154.87-8.4L154.87-8.4Q154.47-8.65 153.87-8.65L153.87-8.65Q153.12-8.65 152.34-8.18 151.57-7.7 150.72-6.95L150.72-6.95Q151.77-6.6 153.87-6.6ZM148.97-0.9L148.97-0.9Q149.47-0.9 150.39-1.38 151.32-1.85 152.32-2.65 153.32-3.45 154.12-4.35L154.12-4.35Q154.37-4.6 154.62-4.98 154.87-5.35 155.17-5.75L155.17-5.75 153.97-5.6Q151.17-5.2 148.97-5.15L148.97-5.15Q147.87-3.35 147.62-2.15L147.62-2.15Q147.57-1.5 147.97-1.2 148.37-0.9 148.97-0.9ZM150.27 14.45L150.27 14.45Q149.77 14.45 149.57 14.35L149.57 14.35Q149.42 14.2 149.27 14 149.12 13.8 149.12 13.65L149.12 13.65Q149.22 11.5 150.47 8.75 151.72 6 153.74 3 155.77 0 158.07-2.75L158.07-2.75Q160.12-5.25 160.92-6.5L160.92-6.5Q161.57-7.6 162.44-9.73 163.32-11.85 164.42-14.95L164.42-14.95Q164.52-15.25 165.17-15.35L165.17-15.35Q165.97-15.35 165.97-14.15L165.97-14.15Q165.97-13.5 165.82-13.2L165.82-13.2Q165.77-12.95 165.69-12.73 165.62-12.5 165.57-12.4L165.57-12.4Q165.42-12.1 165.42-12L165.42-12Q165.42-12 165.47-11.85 165.52-11.7 165.57-11.45L165.57-11.45Q167.22-12.25 168.47-12.73 169.72-13.2 170.87-13.2L170.87-13.2Q172.22-13.2 172.72-12.3L172.72-12.3Q172.87-12 172.87-11.55L172.87-11.55Q172.87-10.45 172.02-8.78 171.17-7.1 169.84-5.33 168.52-3.55 166.97-2.15L166.97-2.15Q166.42-1.65 165.39-1.05 164.37-0.45 163.19 0.08 162.02 0.6 160.94 0.95 159.87 1.3 159.27 1.3L159.27 1.3Q158.62 2.65 157.97 3.93 157.32 5.2 156.62 6.4L156.62 6.4Q153.42 12.1 150.92 14.35L150.92 14.35Q150.82 14.45 150.27 14.45ZM161.22-2.75L160.32-0.85Q162.67-1.25 165.32-2.9L165.32-2.9Q167.97-4.55 169.72-6.85 171.47-9.15 171.32-11.45L171.32-11.45Q171.02-12.35 170.07-12.35L170.07-12.35Q169.42-12.35 168.44-11.9 167.47-11.45 166.47-10.75 165.47-10.05 164.69-9.35 163.92-8.65 163.62-8.15L163.62-8.15Q163.37-7.8 163.02-6.9L163.02-6.9Q162.82-6.5 162.72-6.2 162.62-5.9 162.57-5.8L162.57-5.8Q162.32-5.15 161.97-4.38 161.62-3.6 161.22-2.75L161.22-2.75ZM150.87 11.5L150.87 11.5Q150.87 11.7 150.97 11.7L150.97 11.7Q151.22 11.7 151.87 10.95L151.87 10.95Q152.92 9.85 153.47 8.95L153.47 8.95Q154.47 7.35 155.34 5.75 156.22 4.15 157.02 2.55L157.02 2.55Q158.67-0.65 158.42-1.35L158.42-1.35Q157.67-0.6 156.64 0.83 155.62 2.25 154.54 4 153.47 5.75 152.54 7.48 151.62 9.2 151.12 10.55L151.12 10.55Q150.87 11.4 150.87 11.5ZM174.01 0.55L174.01 0.55Q172.96 0.55 172.16 0L172.16 0Q170.86-1 170.86-3L170.86-3Q170.86-5 172.26-7.25 173.66-9.5 176.51-11.4L176.51-11.4Q177.01-11.75 177.86-11.75L177.86-11.75Q178.96-11.75 179.84-11.15 180.71-10.55 180.51-9.6L180.51-9.6Q180.16-8.05 178.99-6.85 177.81-5.65 176.24-4.73 174.66-3.8 173.01-2.95L173.01-2.95Q172.96-2.8 172.94-2.65 172.91-2.5 172.91-2.35L172.91-2.35Q172.91-1.65 173.39-1.13 173.86-0.6 174.71-0.6L174.71-0.6Q175.36-0.6 175.81-0.8L175.81-0.8Q176.61-1.1 177.14-1.35 177.66-1.6 178.36-2.1 179.06-2.6 180.26-3.6L180.26-3.6Q180.81-4 180.91-4L180.91-4Q181.21-4 181.11-3.55L181.11-3.55Q180.61-2.75 179.39-1.8 178.16-0.85 176.69-0.15 175.21 0.55 174.01 0.55ZM173.31-4.3L173.31-4.3Q173.71-4.3 174.96-5.1 176.21-5.9 177.31-6.85L177.31-6.85Q179.21-8.6 179.21-9.55L179.21-9.55Q179.21-9.8 179.06-10L179.06-10Q178.91-10.25 178.61-10.25L178.61-10.25Q177.66-10.25 175.41-8L175.41-8Q173.86-6.5 173.31-4.3Z" opacity="1" transform="matrix(1,0,0,1,0,0)" fill="#130912" class="wordmark-text-0" data-fill-palette-color="primary" id="text-0"></path></svg></g></svg></g></svg></g></svg></g><g transform="matrix(1,0,0,1,415.22929383007914,0)"><svg viewBox="0 0 115.37913245382586 115.37913245382586" height="115.37913245382586" width="115.37913245382586"><g data-palette-color="#e77917"><rect width="31.536962870712404" height="115.37913245382586" fill="#e77917" stroke="transparent" data-fill-palette-color="accent" x="0" fill-opacity="1"></rect><rect width="31.536962870712404" height="115.37913245382586" fill="#e77917" stroke="transparent" data-fill-palette-color="accent" x="38.459710817941954" fill-opacity="0.75"></rect><rect width="31.536962870712404" height="115.37913245382586" fill="#e77917" stroke="transparent" data-fill-palette-color="accent" x="76.91942163588391" fill-opacity="0.5"></rect></g></svg></g></svg></g><defs></defs></svg><rect width="395.52" height="86.00457928596873" fill="none" stroke="none" visibility="hidden"></rect></g></svg></g></svg>