<svg xmlns="http://www.w3.org/2000/svg" viewBox="0 0 342.713 333.118"><defs><style>.a{fill:rgba(255,255,255,0.6);}.b{fill:#fff;}.c{fill:rgba(255,255,255,0.8);}</style></defs><g transform="translate(0 -0.5)"><path class="a" d="M275.178,55.126c0,25.375-20.805,45.946-46.471,45.946S182.238,80.5,182.238,55.126,203.043,9.18,228.707,9.18,275.178,29.751,275.178,55.126Zm0,0" transform="translate(-60.255 -2.935)"/><path class="b" d="M283.853,410.922c0,25.375-20.805,45.946-46.468,45.946s-46.471-20.571-46.471-45.946,20.805-45.949,46.471-45.949S283.853,385.544,283.853,410.922Zm0,0" transform="translate(-63.123 -123.249)"/><path class="c" d="M283.853,228.685c0,25.377-20.805,45.949-46.468,45.949s-46.471-20.571-46.471-45.949,20.805-45.946,46.471-45.946S283.853,203.31,283.853,228.685Zm0,0" transform="translate(-63.123 -61.625)"/><path class="a" d="M466.092,46.446c0,25.377-20.805,45.949-46.468,45.949s-46.471-20.571-46.471-45.949S393.957.5,419.623.5,466.092,21.071,466.092,46.446Zm0,0" transform="translate(-123.378)"/><path class="b" d="M466.092,410.922c0,25.375-20.805,45.946-46.468,45.946s-46.471-20.571-46.471-45.946,20.805-45.949,46.471-45.949S466.092,385.544,466.092,410.922Zm0,0" transform="translate(-123.378 -123.249)"/><path class="c" d="M466.092,228.685c0,25.377-20.805,45.949-46.468,45.949s-46.471-20.571-46.471-45.949,20.805-45.946,46.471-45.946S466.092,203.31,466.092,228.685Zm0,0" transform="translate(-123.378 -61.625)"/><path class="a" d="M92.939,55.126c0,25.375-20.805,45.946-46.471,45.946S0,80.5,0,55.126,20.805,9.18,46.468,9.18,92.939,29.751,92.939,55.126Zm0,0" transform="translate(0 -2.935)"/><path class="b" d="M101.619,410.922c0,25.375-20.808,45.946-46.471,45.946S8.68,436.3,8.68,410.922s20.805-45.949,46.468-45.949S101.619,385.544,101.619,410.922Zm0,0" transform="translate(-2.87 -123.249)"/><path class="c" d="M101.619,228.685c0,25.377-20.808,45.949-46.471,45.949S8.68,254.062,8.68,228.685s20.805-45.946,46.468-45.946S101.619,203.31,101.619,228.685Zm0,0" transform="translate(-2.87 -61.625)"/></g></svg>